<?xml version="1.0" encoding="UTF-8"?> <svg xmlns="http://www.w3.org/2000/svg" id="a" viewBox="0 0 206 60.97"><defs><style>.b{fill:#ed31b8;}.c{fill:#fff;}</style></defs><path class="c" d="M13.64,30.35v7.75l-9.03-.02v-7.73H1.64v18.26h2.97v-7.96H13.64v7.96h2.99V30.35h-2.99Z"></path><path class="c" d="M29,30.05c1.6-.04,3.19,.34,4.59,1.12,1.31,.76,2.36,1.91,3,3.28,.71,1.57,1.06,3.28,1,5,.06,1.72-.29,3.43-1,5-.65,1.37-1.7,2.51-3,3.29-1.39,.81-2.98,1.24-4.59,1.23-1.61,.02-3.19-.39-4.58-1.2-1.31-.77-2.35-1.91-3-3.28-.74-1.56-1.1-3.27-1.06-5-.04-1.73,.32-3.44,1.06-5,.65-1.37,1.69-2.51,3-3.28,1.4-.79,2.98-1.19,4.58-1.16Zm0,2.58c-1.06-.03-2.1,.25-3,.82-.85,.57-1.51,1.38-1.9,2.33-.47,1.18-.7,2.44-.66,3.71-.03,1.27,.19,2.52,.66,3.7,.38,.97,1.06,1.8,1.94,2.37,.88,.57,1.91,.84,2.96,.79,1.06,.03,2.1-.25,3-.82,.85-.57,1.51-1.39,1.89-2.34,.48-1.17,.7-2.43,.67-3.7,.04-1.27-.19-2.53-.67-3.71-.38-.95-1.04-1.76-1.89-2.33-.9-.57-1.94-.85-3-.82Z"></path><path class="c" d="M44.33,46.06h10.05v2.55h-13V30.35h3l-.05,15.71Z"></path><path class="c" d="M60.23,46.06h10.08v2.55h-13.05V30.35h3l-.03,15.71Z"></path><path class="c" d="M88.37,48.61h-3.13l-1.74-4.79h-7.68l-1.74,4.79h-3.08l6.9-18.26h3.54l6.93,18.26Zm-11.72-7.2h6l-3-8.53-3,8.53Z"></path><path class="c" d="M105.91,30.35v18.26h-3.52l-7.06-11.5-1.78-3.28,.12,3v11.78h-2.67V30.35h3.46l7,11.49,1.81,3.28-.11-3v-11.77h2.75Z"></path><path class="c" d="M117.12,30.35c2.45-.13,4.86,.72,6.69,2.36,1.59,1.54,2.39,3.84,2.39,6.77,.08,1.23-.1,2.47-.51,3.63-.41,1.16-1.05,2.24-1.88,3.15-.9,.82-1.96,1.45-3.11,1.86-1.15,.41-2.37,.58-3.58,.5h-6.45V30.35h6.45Zm0,15.75c.82,.06,1.64-.07,2.41-.36,.76-.3,1.45-.77,2.01-1.37,1.11-1.39,1.65-3.15,1.53-4.93,.12-1.77-.43-3.53-1.53-4.92-.56-.59-1.24-1.06-2-1.36-.77-.29-1.6-.42-2.42-.37h-3.5v13.3h3.5Z"></path><path class="c" d="M145.32,30.35c1.17-.03,2.33,.2,3.39,.69,.92,.44,1.69,1.13,2.23,2,.53,.94,.8,1.99,.8,3.07s-.28,2.13-.8,3.07c-.54,.87-1.31,1.56-2.23,2-1.06,.48-2.22,.72-3.39,.69h-4.11v6.81h-3V30.35h7.11Zm-.47,8.91c1.03,.09,2.06-.2,2.89-.82,.32-.3,.56-.66,.72-1.07,.16-.41,.23-.84,.21-1.28,.04-.45-.01-.9-.17-1.33-.15-.43-.4-.81-.72-1.13-.83-.61-1.86-.9-2.89-.82h-3.68v6.4l3.64,.05Z"></path><path class="c" d="M168.66,48.61h-3.12l-1.74-4.79h-7.68l-1.77,4.79h-3.06l6.93-18.26h3.52l6.92,18.26Zm-11.66-7.2h6l-3-8.53-3,8.53Z"></path><path class="c" d="M186.22,48.62l-5.06-7.73c.79-.23,1.54-.61,2.2-1.1,.59-.49,1.04-1.12,1.34-1.82,.3-.69,.43-1.45,.39-2.2,.03-.75-.11-1.51-.41-2.2-.3-.69-.75-1.31-1.32-1.8-1.32-1.04-2.98-1.55-4.66-1.46h-7.46v18.35h2.94v-7.3h4l4.63,7.26h3.41Zm-12-15.72h4.3c.95-.07,1.89,.19,2.66,.75,.31,.28,.55,.62,.7,1.01,.15,.39,.21,.8,.18,1.22,.03,.42-.03,.84-.18,1.23-.15,.38-.39,.73-.7,1-.77,.55-1.71,.81-2.66,.73l-4.3,.06v-6Z"></path><path class="c" d="M200.86,48.66h3.48l-7.1-10.83,6.94-7.48h-3.64l-8.39,9.09v-9.09h-2.96v18.26h2.96v-5.61l2.94-3.2,5.77,8.86Z"></path><path class="c" d="M88.67,60.88v-4.36h3v.5h-2.48v1.4h2v.55h-2v1.47h2.63v.44h-3.15Z"></path><path class="c" d="M94.29,56.45c.35,0,.69,.08,1,.24,.29,.17,.53,.41,.7,.69l-.44,.35c-.13-.24-.32-.45-.55-.6-.23-.12-.49-.18-.75-.17-.19-.01-.39,.02-.57,.09-.14,.05-.26,.15-.34,.27-.07,.11-.11,.23-.11,.36,0,.15,.06,.29,.15,.41,.16,.15,.36,.25,.58,.27l1,.21c.33,.05,.63,.19,.87,.42,.17,.19,.26,.44,.25,.7,0,.24-.07,.47-.21,.66-.15,.2-.35,.35-.58,.44-.55,.19-1.16,.19-1.71,0-.22-.08-.43-.2-.62-.35-.17-.14-.3-.3-.41-.49l.45-.37c.09,.16,.19,.31,.32,.44,.14,.13,.31,.23,.49,.3,.21,.07,.42,.11,.64,.1,.18,.01,.37,0,.55-.05,.15-.05,.28-.13,.39-.25,.09-.11,.13-.25,.13-.39,0-.14-.05-.27-.14-.38-.14-.14-.33-.23-.53-.25l-1-.23c-.23-.05-.46-.14-.66-.26-.16-.08-.29-.2-.38-.35-.07-.15-.11-.31-.1-.48,0-.23,.06-.45,.18-.64,.15-.2,.34-.37,.57-.47,.26-.13,.54-.21,.83-.22Z"></path><path class="c" d="M100,56.52v.5h-1.48v3.86h-.52v-3.86h-1.53v-.5h3.53Z"></path><path class="c" d="M100.46,60.09c.05,0,.11,0,.16,.02,.05,.02,.1,.04,.14,.08,.04,.03,.07,.08,.1,.12,.02,.05,.04,.1,.04,.15v.06c0,.11-.04,.22-.11,.31-.09,.08-.2,.12-.32,.12-.11,0-.22-.04-.31-.12-.07-.09-.11-.2-.11-.31,0-.05,0-.11,.02-.16,.02-.05,.04-.1,.08-.14,.03-.04,.08-.07,.12-.1,.05-.02,.1-.04,.15-.04h.05Z"></path><path class="c" d="M104.08,60.88v-.43c.44-.32,.83-.6,1.1-.82,.25-.2,.48-.42,.7-.65,.15-.17,.28-.36,.37-.57,.08-.18,.12-.37,.12-.56,0-.12-.01-.23-.06-.34-.04-.11-.1-.21-.19-.29-.09-.09-.19-.15-.31-.19-.12-.04-.24-.06-.37-.05-.13,0-.27,.02-.39,.07-.12,.05-.23,.12-.32,.22-.2,.23-.31,.52-.32,.82l-.46-.28c.03-.24,.11-.47,.24-.67,.12-.2,.3-.36,.51-.46,.43-.2,.92-.22,1.36-.07,.17,.06,.33,.16,.46,.29,.14,.11,.24,.26,.3,.42,.07,.18,.11,.37,.11,.56,0,.29-.07,.57-.21,.82-.17,.31-.39,.59-.65,.83-.39,.35-.8,.66-1.24,.95h2.17v.4h-2.92Z"></path><path class="c" d="M109.5,60.97c-.23,0-.46-.05-.67-.15-.21-.1-.38-.25-.52-.43-.32-.48-.48-1.06-.44-1.64-.03-.58,.12-1.15,.44-1.64,.15-.18,.33-.32,.53-.43,.21-.1,.43-.15,.66-.15s.45,.05,.66,.15c.2,.11,.38,.25,.53,.43,.28,.5,.43,1.07,.43,1.64s-.15,1.14-.43,1.64c-.14,.19-.32,.34-.53,.44-.21,.1-.43,.14-.66,.14Zm0-.48c.21,.01,.43-.06,.59-.2,.18-.16,.31-.37,.37-.6,.15-.63,.15-1.3,0-1.93-.06-.23-.19-.44-.37-.6-.08-.07-.17-.13-.27-.17-.1-.04-.21-.05-.32-.04-.22,0-.43,.07-.6,.21-.18,.16-.3,.37-.36,.6-.16,.63-.16,1.3,0,1.93,.07,.23,.19,.43,.36,.6,.17,.13,.38,.2,.6,.2Z"></path><path class="c" d="M112,60.88v-.43c.44-.32,.82-.6,1.09-.82,.25-.2,.49-.42,.71-.65,.15-.17,.28-.36,.38-.57,.07-.18,.1-.37,.1-.56,.02-.11,.02-.23,0-.34-.04-.11-.11-.21-.19-.29-.09-.09-.2-.15-.32-.19-.11-.04-.24-.06-.36-.05-.13,0-.27,.02-.39,.07-.12,.05-.23,.13-.33,.22-.2,.23-.31,.52-.32,.82l-.46-.28c.04-.24,.12-.47,.25-.67,.12-.2,.3-.36,.51-.46,.24-.11,.5-.17,.76-.17,.21,0,.41,.03,.61,.1,.17,.07,.32,.17,.46,.29,.12,.12,.22,.26,.29,.42,.07,.18,.11,.37,.1,.56,.01,.29-.06,.57-.2,.82-.17,.31-.39,.59-.65,.83-.39,.34-.8,.66-1.23,.95h2.19v.4h-3Z"></path><path class="c" d="M116.78,60.88v-3.71c-.16,.15-.33,.28-.52,.38-.19,.1-.4,.18-.61,.23l-.14-.48c.11-.02,.21-.05,.31-.09l.37-.19c.14-.07,.26-.15,.38-.25,.1-.07,.19-.16,.27-.26h.45v4.36h-.51Z"></path><path class="b" d="M206,58.22H120.9v.89h85.1v-.89Z"></path><path class="b" d="M85.1,58.22H0v.89H85.1v-.89Z"></path><path class="b" d="M115.69,2.97v-.94h-5.25v.94h.45v2.76h-1.33c-.22-1.59-1-3.04-2.2-4.1-1.21-1.05-2.75-1.63-4.36-1.63s-3.15,.58-4.36,1.63c-1.21,1.05-1.99,2.51-2.2,4.1h-1.34V2.97h.46v-.94h-5.25v.94h.48V19.83h-.48v.9h25.38v-.9h-.49V2.97h.49Zm-21.53,16.82h-2.45v-1h2.45v1Zm0-1.46h-2.45V4.91h2.45v13.42Zm0-13.91h-2.45v-1.45h2.45v1.45Zm1.62,15.37h-.69V6.64h.68v13.15Zm1.46,0h-1V7.68h1v12.11Zm0-12.59h-1v-.56h1v.56Zm5.53-6.32V5.73h-5.36c.16-1.32,.8-2.53,1.78-3.42,.98-.89,2.25-1.4,3.58-1.43Zm-4.25,18.91h-.82V6.64h.82v13.15Zm1.07,0h-.76V6.64h.76v13.15Zm1.06,0h-.76V6.64h.76v13.15Zm1.06,0h-.76V6.64h.76v13.15Zm1.12,0h-.82V6.64h.82v13.15Zm1.18,0h-.83V6.64h.83v13.15Zm1.06,0h-.77V6.64h.77v13.15Zm1,0h-.76V6.64h.76v13.15Zm1.06,0h-.76V6.64h.76v13.15Zm1.14,0h-.83V6.64h.83v13.15Zm-5.03-14.06V.88c1.33,.03,2.6,.54,3.58,1.43,.98,.89,1.62,2.1,1.78,3.42h-5.36Zm6.53,14.06h-1V7.68h1v12.11Zm0-12.59h-1v-.56h1v.56Zm.45,12.59V6.64h.68v13.15h-.68Zm4.07,0h-2.45v-1h2.45v1Zm0-1.46h-2.45V4.91h2.45v13.42Zm0-13.91h-2.45v-1.45h2.45v1.45Z"></path></svg> 